<svg width="512" height="512" viewBox="0 0 512 512" fill="none" xmlns="http://www.w3.org/2000/svg">
<path d="M416 352C403.4 351.16 395 348 388 340C374 324 374 304 393.49 287.52L426.31 258.38C476.58 213.97 476.58 141.17 426.31 96.75C389.26 64.14 339.54 48 287.86 48C227.52 48 164.47 70 115.86 113.11C25.4 193.11 25.4 324.03 115.86 403.98C160.86 443.74 221.49 463.57 281.5 463.98H283.34C343.34 463.98 402.41 444.48 444.54 407.21C464 390 464 385 444.62 355.56C440 348 431 353 416 352ZM112 208C112 201.671 113.877 195.484 117.393 190.222C120.909 184.959 125.907 180.858 131.754 178.436C137.601 176.014 144.036 175.38 150.243 176.615C156.45 177.85 162.152 180.897 166.627 185.373C171.103 189.848 174.15 195.55 175.385 201.757C176.62 207.965 175.986 214.399 173.564 220.246C171.142 226.093 167.041 231.091 161.778 234.607C156.516 238.123 150.329 240 144 240C135.513 240 127.374 236.629 121.373 230.627C115.371 224.626 112 216.487 112 208ZM152 343C145.671 343 139.484 341.123 134.222 337.607C128.959 334.091 124.858 329.093 122.436 323.246C120.014 317.399 119.38 310.965 120.615 304.757C121.85 298.55 124.897 292.848 129.373 288.373C133.848 283.897 139.55 280.85 145.757 279.615C151.965 278.38 158.399 279.014 164.246 281.436C170.093 283.858 175.091 287.959 178.607 293.222C182.123 298.484 184 304.671 184 311C184 319.487 180.629 327.626 174.627 333.627C168.626 339.629 160.487 343 152 343ZM192 144C192 137.671 193.877 131.484 197.393 126.222C200.909 120.959 205.907 116.858 211.754 114.436C217.601 112.014 224.036 111.38 230.243 112.615C236.45 113.85 242.152 116.897 246.627 121.373C251.103 125.848 254.15 131.55 255.385 137.757C256.62 143.965 255.986 150.399 253.564 156.246C251.142 162.093 247.041 167.091 241.778 170.607C236.516 174.123 230.329 176 224 176C215.513 176 207.374 172.629 201.373 166.627C195.371 160.626 192 152.487 192 144ZM256 415C246.507 415 237.226 412.185 229.333 406.911C221.439 401.636 215.287 394.14 211.654 385.369C208.021 376.598 207.07 366.947 208.922 357.636C210.774 348.325 215.346 339.772 222.059 333.059C228.772 326.346 237.325 321.774 246.636 319.922C255.947 318.07 265.598 319.021 274.369 322.654C283.14 326.287 290.636 332.439 295.911 340.333C301.185 348.226 304 357.506 304 367C304 379.73 298.943 391.939 289.941 400.941C280.939 409.943 268.73 415 256 415V415ZM328 176C321.671 176 315.484 174.123 310.222 170.607C304.959 167.091 300.858 162.093 298.436 156.246C296.014 150.399 295.38 143.965 296.615 137.757C297.85 131.55 300.897 125.848 305.373 121.373C309.848 116.897 315.55 113.85 321.757 112.615C327.965 111.38 334.399 112.014 340.246 114.436C346.093 116.858 351.091 120.959 354.607 126.222C358.123 131.484 360 137.671 360 144C360 152.487 356.629 160.626 350.627 166.627C344.626 172.629 336.487 176 328 176Z" fill="#FFB703"/>
</svg>
